<svg xmlns="http://www.w3.org/2000/svg" viewBox="0 0 800 600">
  <defs>
    <linearGradient id="hottake-sky" x1="0" y1="0" x2="0" y2="1">
      <stop offset="0" stop-color="#2e1a2e"/>
      <stop offset="0.6" stop-color="#170e1c"/>
      <stop offset="1" stop-color="#0b0b10"/>
    </linearGradient>
    <radialGradient id="hottake-glow" cx="0.5" cy="0.5" r="0.5">
      <stop offset="0" stop-color="#c9a227" stop-opacity="0.3"/>
      <stop offset="1" stop-color="#c9a227" stop-opacity="0"/>
    </radialGradient>
  </defs>
  <rect width="800" height="600" fill="url(#hottake-sky)"/>
  <g fill="#ffffff">
    <circle cx="90" cy="70" r="2" opacity="0.8"/>
    <circle cx="210" cy="140" r="1.4" opacity="0.55"/>
    <circle cx="330" cy="70" r="1.8" opacity="0.75"/>
    <circle cx="470" cy="120" r="1.3" opacity="0.5"/>
    <circle cx="590" cy="60" r="2" opacity="0.8"/>
    <circle cx="690" cy="150" r="1.5" opacity="0.6"/>
    <circle cx="740" cy="80" r="1.7" opacity="0.7"/>
  </g>
  <circle cx="400" cy="290" r="190" fill="url(#hottake-glow)"/>
  <g>
    <rect x="170" y="150" width="460" height="260" rx="48" fill="#14141f" stroke="#c9a227" stroke-width="6"/>
    <polygon points="330,410 330,470 410,410" fill="#14141f" stroke="#c9a227" stroke-width="6" stroke-linejoin="round"/>
    <rect x="170" y="150" width="460" height="260" rx="48" fill="none" stroke="#c9a227" stroke-opacity="0.25" stroke-width="14"/>
    <text x="400" y="300" text-anchor="middle" font-family="Georgia, serif" font-size="72" font-weight="bold" fill="#f2e8c8">Ha!</text>
    <g stroke="#c9a227" stroke-width="8" stroke-linecap="round">
      <line x1="238" y1="350" x2="262" y2="326"/>
      <line x1="562" y1="350" x2="538" y2="326"/>
    </g>
  </g>
  <g fill="#c9a227">
    <circle cx="150" cy="480" r="7"/>
    <circle cx="205" cy="505" r="5" opacity="0.7"/>
    <circle cx="650" cy="480" r="7"/>
    <circle cx="595" cy="505" r="5" opacity="0.7"/>
    <rect x="330" y="500" width="140" height="14" rx="7" opacity="0.85"/>
  </g>
</svg>
