<svg xmlns="http://www.w3.org/2000/svg" viewBox="0 0 800 600">
  <defs>
    <linearGradient id="mafia-sky" x1="0" y1="0" x2="0" y2="1">
      <stop offset="0" stop-color="#1b1b36"/>
      <stop offset="0.6" stop-color="#0e0e1c"/>
      <stop offset="1" stop-color="#0b0b10"/>
    </linearGradient>
    <radialGradient id="mafia-moonglow" cx="0.5" cy="0.5" r="0.5">
      <stop offset="0" stop-color="#fdf6e1" stop-opacity="0.55"/>
      <stop offset="0.6" stop-color="#fdf6e1" stop-opacity="0.18"/>
      <stop offset="1" stop-color="#fdf6e1" stop-opacity="0"/>
    </radialGradient>
    <radialGradient id="mafia-halo" cx="0.5" cy="0.5" r="0.5">
      <stop offset="0" stop-color="#c9a227" stop-opacity="0.22"/>
      <stop offset="1" stop-color="#c9a227" stop-opacity="0"/>
    </radialGradient>
  </defs>
  <rect width="800" height="600" fill="url(#mafia-sky)"/>
  <g fill="#ffffff">
    <circle cx="70" cy="60" r="2.2" opacity="0.9"/>
    <circle cx="150" cy="140" r="1.4" opacity="0.6"/>
    <circle cx="230" cy="60" r="1.8" opacity="0.8"/>
    <circle cx="310" cy="120" r="1.3" opacity="0.55"/>
    <circle cx="390" cy="55" r="2" opacity="0.85"/>
    <circle cx="460" cy="130" r="1.4" opacity="0.6"/>
    <circle cx="60" cy="230" r="1.6" opacity="0.7"/>
    <circle cx="180" cy="260" r="1.2" opacity="0.5"/>
    <circle cx="270" cy="200" r="1.9" opacity="0.8"/>
    <circle cx="350" cy="280" r="1.3" opacity="0.55"/>
    <circle cx="470" cy="230" r="1.7" opacity="0.75"/>
    <circle cx="540" cy="290" r="1.2" opacity="0.5"/>
    <circle cx="700" cy="260" r="1.8" opacity="0.8"/>
    <circle cx="750" cy="90" r="1.5" opacity="0.7"/>
    <circle cx="120" cy="320" r="1.4" opacity="0.55"/>
    <circle cx="430" cy="330" r="1.2" opacity="0.5"/>
  </g>
  <circle cx="610" cy="140" r="120" fill="url(#mafia-moonglow)"/>
  <circle cx="610" cy="140" r="56" fill="#f2e8c8"/>
  <circle cx="592" cy="128" r="10" fill="#d9cba4" opacity="0.8"/>
  <circle cx="624" cy="156" r="7" fill="#d9cba4" opacity="0.7"/>
  <circle cx="614" cy="120" r="5" fill="#d9cba4" opacity="0.7"/>
  <g fill="#050508">
    <rect x="0" y="440" width="100" height="160"/>
    <rect x="80" y="390" width="70" height="210"/>
    <rect x="150" y="455" width="110" height="145"/>
    <rect x="260" y="370" width="60" height="230"/>
    <rect x="320" y="430" width="120" height="170"/>
    <rect x="440" y="395" width="66" height="205"/>
    <rect x="506" y="450" width="104" height="150"/>
    <rect x="610" y="385" width="72" height="215"/>
    <rect x="682" y="445" width="118" height="155"/>
  </g>
  <g fill="#c9a227" opacity="0.9">
    <rect x="96" y="410" width="9" height="13"/>
    <rect x="114" y="410" width="9" height="13"/>
    <rect x="96" y="432" width="9" height="13"/>
    <rect x="176" y="475" width="9" height="13"/>
    <rect x="196" y="475" width="9" height="13"/>
    <rect x="276" y="390" width="8" height="12"/>
    <rect x="276" y="412" width="8" height="12"/>
    <rect x="346" y="450" width="9" height="13"/>
    <rect x="368" y="450" width="9" height="13"/>
    <rect x="346" y="472" width="9" height="13"/>
    <rect x="456" y="415" width="8" height="12"/>
    <rect x="626" y="405" width="9" height="13"/>
    <rect x="626" y="427" width="9" height="13"/>
    <rect x="648" y="405" width="9" height="13"/>
    <rect x="706" y="465" width="9" height="13"/>
    <rect x="728" y="465" width="9" height="13"/>
  </g>
  <circle cx="400" cy="330" r="155" fill="url(#mafia-halo)"/>
  <g>
    <path d="M 195 600 C 215 465, 295 425, 400 425 C 505 425, 585 465, 605 600 Z" fill="#14141f" stroke="#c9a227" stroke-opacity="0.4" stroke-width="2"/>
    <g stroke="#c9a227" stroke-opacity="0.16" stroke-width="2">
      <line x1="260" y1="480" x2="250" y2="600"/>
      <line x1="300" y1="460" x2="295" y2="600"/>
      <line x1="500" y1="460" x2="505" y2="600"/>
      <line x1="540" y1="480" x2="550" y2="600"/>
    </g>
    <polygon points="368,428 432,428 400,530" fill="#f2e8c8"/>
    <polygon points="390,432 410,432 406,478 400,498 394,478" fill="#e5484d"/>
    <polygon points="340,428 372,432 358,525 318,472" fill="#0b0b10" stroke="#c9a227" stroke-opacity="0.35" stroke-width="1.5"/>
    <polygon points="460,428 428,432 442,525 482,472" fill="#0b0b10" stroke="#c9a227" stroke-opacity="0.35" stroke-width="1.5"/>
    <polygon points="288,508 312,508 300,484" fill="#c9a227"/>
    <circle cx="472" cy="492" r="5" fill="#c9a227"/>
    <rect x="376" y="388" width="48" height="44" rx="10" fill="#d9a877"/>
    <ellipse cx="400" cy="342" rx="56" ry="66" fill="#e8c39e"/>
    <ellipse cx="400" cy="316" rx="56" ry="24" fill="#0e0e1c" opacity="0.55"/>
    <ellipse cx="377" cy="338" rx="11" ry="6" fill="#fdf6e1"/>
    <ellipse cx="423" cy="338" rx="11" ry="6" fill="#fdf6e1"/>
    <circle cx="379" cy="339" r="3.2" fill="#0b0b10"/>
    <circle cx="421" cy="339" r="3.2" fill="#0b0b10"/>
    <rect x="364" y="326" width="26" height="6" rx="3" fill="#0b0b10" opacity="0.85"/>
    <rect x="410" y="326" width="26" height="6" rx="3" fill="#0b0b10" opacity="0.85"/>
    <path d="M 384 376 Q 404 384 422 370" stroke="#5a2e1a" stroke-width="3.5" fill="none" stroke-linecap="round"/>
    <ellipse cx="400" cy="286" rx="98" ry="23" fill="#0b0b10" stroke="#c9a227" stroke-width="2"/>
    <path d="M 328 286 C 334 218, 366 198, 400 198 C 434 198, 466 218, 472 286 Z" fill="#15151f" stroke="#c9a227" stroke-opacity="0.45" stroke-width="2"/>
    <path d="M 333 264 C 362 276, 438 276, 467 264 L 467 282 C 438 294, 362 294, 333 282 Z" fill="#c9a227"/>
    <ellipse cx="372" cy="228" rx="10" ry="16" fill="#ffffff" opacity="0.08"/>
  </g>
</svg>
